<?xml version="1.0" encoding="UTF-8"?>
<svg xmlns="http://www.w3.org/2000/svg" viewBox="0 0 410 410">
  <defs>
    <style>
      .cls-1 {
        stroke: #041d38;
        stroke-miterlimit: 10;
        stroke-width: 9px;
      }

      .cls-1, .cls-2 {
        fill: #0f4872;
      }

      .cls-2, .cls-3, .cls-4, .cls-5, .cls-6, .cls-7, .cls-8, .cls-9, .cls-10 {
        stroke-width: 0px;
      }

      .cls-3 {
        fill: #d3ba53;
      }

      .cls-4 {
        fill: #a4cdea;
      }

      .cls-5 {
        fill: #fdfeff;
      }

      .cls-6 {
        fill: #6798b7;
      }

      .cls-7 {
        fill: #fff;
      }

      .cls-8 {
        fill: #ffeb97;
      }

      .cls-9 {
        fill: #ffdefe;
      }

      .cls-10 {
        fill: #041d38;
      }
    </style>
  </defs>
  <g id="Layer_3" data-name="Layer 3">
    <g id="Layer_2" data-name="Layer 2">
      <circle class="cls-4" cx="205" cy="199.72" r="194.5"/>
      <path class="cls-6" d="m317.62,101.48c-11,13.41-22.47,22.05-30.5,28.09-11.98,9.02-22.41,14.85-38.7,23.95-10.59,5.91-19.55,10.52-25.88,13.68,12.64.53,59.91.93,92.43-35.1,29.67-32.87,30.59-77.17,28.73-77.91-1.4-.55-6.03,22.84-26.08,47.28Z"/>
    </g>
  </g>
  <g id="Layer_10" data-name="Layer 10">
    <path class="cls-6" d="m322.55,324.8c16.49-21.88,25.72-42.89,32.19-57.6,9.65-21.95,15.04-40.39,23.45-69.19,5.47-18.71,9.5-34.42,12.21-45.48,4.75,19.8,20.21,94.41-23.15,157.86-39.55,57.89-105.14,74.14-106.82,71.45-1.26-2.03,32.07-17.16,62.12-57.04Z"/>
    <path class="cls-6" d="m218.53,117.44c-5.92,9.81-12.67,16.83-17.39,21.75-7.05,7.34-13.41,12.51-23.35,20.6-6.46,5.25-11.97,9.46-15.87,12.37,8.54-1.72,42.74,4.56,60.63-22.27,16.31-24.48,9.64-64.85,8.32-64.99-1-.11-1.55,14.66-12.33,32.54Z"/>
    <path class="cls-6" d="m167.07,88.44c-5.92,9.81-12.67,16.83-17.39,21.75-7.05,7.34-13.41,12.51-23.35,20.6-6.46,5.25-11.97,9.46-15.87,12.37,8.54-1.72,42.74,4.56,60.63-22.27,16.31-24.48,9.64-64.85,8.32-64.99-1-.11-1.55,14.66-12.33,32.54Z"/>
    <path class="cls-6" d="m94.17,333.19c-16.49-21.88-25.72-42.89-32.19-57.6-9.65-21.95-15.04-40.39-23.45-69.19-5.47-18.71-9.5-34.42-12.21-45.48-4.75,19.8-20.21,94.41,23.15,157.86,39.55,57.89,105.14,74.14,106.82,71.45,1.26-2.03-32.07-17.16-62.12-57.04Z"/>
  </g>
  <g id="Layer_7" data-name="Layer 7">
    <path class="cls-10" d="m385.56,174.88c-5.05-26.47-51.15-76.3-67.27-65.41-19.53,13.19-104.26,72.13-93.53,55.08,10.73-17.05,1.15-58.88-2.77-47.48-15.3,44.44-61.63,60.78-59.42,54.41,9.29-26.76,3.01-73.52,2.27-68.94-3.36,20.82-152.41,92.61-152.41,92.61,0,0,8.36-46.19,12.56-60.25s18.41-44.71,59.4-77.46,121.24-38.9,125.69-39.73c1.65-.31,85.21,14.04,124.57,44.36,37.42,28.82,71.27,77.75,50.91,112.82"/>
  </g>
  <g id="Layer_6" data-name="Layer 6">
    <path class="cls-1" d="m232.89,293c0,17.77-11.99,32.18-26.78,32.18s-26.78-14.41-26.78-32.18,11.99-3.66,26.78-3.66,26.78-14.11,26.78,3.66Z"/>
    <path class="cls-9" d="m222.06,308.98c0,6.25-7.14,12.02-15.95,12.02s-15.95-5.77-15.95-12.02,7.14-11.31,15.95-11.31,15.95,5.06,15.95,11.31Z"/>
  </g>
  <g id="Layer_4" data-name="Layer 4">
    <circle class="cls-7" cx="306.44" cy="205" r="66.32"/>
    <ellipse class="cls-10" cx="304.22" cy="200.52" rx="59.58" ry="61.84"/>
    <ellipse class="cls-2" cx="295.61" cy="195.15" rx="50.1" ry="52"/>
    <path class="cls-10" d="m244.64,167.68c6.93-5.96,26.44-21.08,54.83-22.59,7.79-.41,27.15-1.18,46.08,10.54,10.7,6.63,16.8,14.47,18.47,16.72,9.08,12.16,11.28,24.19,12.92,33.21,1.4,7.67,2.67,19.7.32,34.41,3.14-4.27,17.81-25.17,13.68-53.65-4.9-33.86-32.28-50.29-36.14-52.52-26.73-15.43-53.43-8.22-60.42-6.21-31.99,9.2-46.85,34.85-49.75,40.09Z"/>
    <path class="cls-3" d="m276.45,217.84l16.58-7.54c1.43-.65,3.1-.56,4.45.26l15.61,9.39c3.4,2.04,7.67-.7,7.22-4.64l-2.04-18.1c-.18-1.57.43-3.12,1.62-4.15l13.75-11.94c3-2.6,1.71-7.51-2.18-8.3l-17.84-3.65c-1.54-.32-2.83-1.37-3.45-2.82l-7.11-16.77c-1.55-3.65-6.61-3.94-8.57-.49l-8.98,15.84c-.78,1.37-2.18,2.27-3.75,2.41l-18.14,1.58c-3.95.34-5.79,5.07-3.12,8l12.29,13.44c1.06,1.16,1.49,2.77,1.13,4.31l-4.1,17.74c-.89,3.87,3.03,7.08,6.64,5.44Z"/>
    <path class="cls-8" d="m279,209.34l13.23-6.02c1.14-.52,2.47-.44,3.55.2l12.46,7.49c2.71,1.63,6.12-.56,5.77-3.7l-1.63-14.45c-.14-1.25.34-2.49,1.29-3.31l10.98-9.53c2.39-2.08,1.36-5.99-1.74-6.63l-14.24-2.91c-1.23-.25-2.26-1.09-2.75-2.25l-5.68-13.38c-1.24-2.92-5.28-3.15-6.84-.39l-7.17,12.65c-.62,1.09-1.74,1.81-2.99,1.92l-14.48,1.26c-3.16.27-4.63,4.05-2.49,6.39l9.81,10.73c.85.93,1.19,2.21.9,3.44l-3.28,14.16c-.71,3.09,2.42,5.65,5.3,4.34Z"/>
    <circle class="cls-7" cx="283.42" cy="151.13" r="8.81"/>
    <path class="cls-5" d="m293.32,236.91l1.76-.42c.46-.11.95.02,1.31.34l1.37,1.23c.91.81,2.33.25,2.4-.96l.11-1.82c.03-.48.29-.91.7-1.14l1.55-.9c1.03-.6.9-2.14-.22-2.61l-1.69-.71c-.44-.19-.78-.58-.88-1.05l-.41-1.79c-.27-1.18-1.77-1.57-2.53-.66l-1.15,1.38c-.3.36-.77.55-1.24.5l-1.81-.2c-1.2-.13-1.99,1.17-1.34,2.2l.98,1.56c.26.41.3.92.12,1.35l-.71,1.66c-.47,1.1.54,2.29,1.7,2.02Z"/>
    <path class="cls-5" d="m327.83,238.87l2.08-1.77c.55-.47,1.3-.63,2.01-.45l2.7.71c1.79.47,3.31-1.27,2.57-2.94l-1.11-2.53c-.29-.66-.24-1.42.15-2.02l1.47-2.29c.97-1.52-.27-3.51-2.1-3.36l-2.77.21c-.73.06-1.44-.24-1.91-.8l-1.79-2.12c-1.19-1.41-3.47-.89-3.87.86l-.6,2.66c-.16.7-.66,1.27-1.33,1.53l-2.58.98c-1.71.65-1.88,2.95-.29,3.9l2.4,1.43c.63.38,1.04,1.03,1.09,1.75l.2,2.73c.13,1.81,2.31,2.72,3.69,1.54Z"/>
  </g>
  <g id="Layer_8" data-name="Layer 8">
    <circle class="cls-7" cx="104.98" cy="209.39" r="66.32"/>
    <path class="cls-10" d="m166.78,204.91c0,34.15-26.67,61.84-59.58,61.84-32.9,0-59.58-27.68-59.58-61.84s26.67-61.84,59.58-61.84c32.9,0,59.58,27.68,59.58,61.84Z"/>
    <ellipse class="cls-2" cx="115.81" cy="199.54" rx="50.1" ry="52"/>
    <path class="cls-10" d="m166.78,172.06c-6.93-5.96-26.44-21.08-54.83-22.59-7.79-.41-27.15-1.18-46.08,10.54-10.7,6.63-16.8,14.47-18.47,16.72-9.08,12.16-11.28,24.19-12.92,33.21-1.4,7.67-2.67,19.7-.32,34.41-3.14-4.27-17.81-25.17-13.68-53.65,4.9-33.86,32.28-50.29,36.14-52.52,26.73-15.43,53.43-8.22,60.42-6.21,31.99,9.2,46.85,34.85,49.75,40.09Z"/>
    <path class="cls-3" d="m134.97,222.23l-16.58-7.54c-1.43-.65-3.1-.56-4.45.26l-15.61,9.39c-3.4,2.04-7.67-.7-7.22-4.64l2.04-18.1c.18-1.57-.43-3.12-1.62-4.15l-13.75-11.94c-3-2.6-1.71-7.51,2.18-8.3l17.84-3.65c1.54-.32,2.83-1.37,3.45-2.82l7.11-16.77c1.55-3.65,6.61-3.94,8.57-.49l8.98,15.84c.78,1.37,2.18,2.27,3.75,2.41l18.14,1.58c3.95.34,5.79,5.07,3.12,8l-12.29,13.44c-1.06,1.16-1.49,2.77-1.13,4.31l4.1,17.74c.89,3.87-3.03,7.08-6.64,5.44Z"/>
    <path class="cls-8" d="m132.41,213.73l-13.23-6.02c-1.14-.52-2.47-.44-3.55.2l-12.46,7.49c-2.71,1.63-6.12-.56-5.77-3.7l1.63-14.45c.14-1.25-.34-2.49-1.29-3.31l-10.98-9.53c-2.39-2.08-1.36-5.99,1.74-6.63l14.24-2.91c1.23-.25,2.26-1.09,2.75-2.25l5.68-13.38c1.24-2.92,5.28-3.15,6.84-.39l7.17,12.65c.62,1.09,1.74,1.81,2.99,1.92l14.48,1.26c3.16.27,4.63,4.05,2.49,6.39l-9.81,10.73c-.85.93-1.19,2.21-.9,3.44l3.28,14.16c.71,3.09-2.42,5.65-5.3,4.34Z"/>
    <circle class="cls-7" cx="128" cy="155.52" r="8.81"/>
    <path class="cls-5" d="m118.09,241.3l-1.76-.42c-.46-.11-.95.02-1.31.34l-1.37,1.23c-.91.81-2.33.25-2.4-.96l-.11-1.82c-.03-.48-.29-.91-.7-1.14l-1.55-.9c-1.03-.6-.9-2.14.22-2.61l1.69-.71c.44-.19.78-.58.88-1.05l.41-1.79c.27-1.18,1.77-1.57,2.53-.66l1.15,1.38c.3.36.77.55,1.24.5l1.81-.2c1.2-.13,1.99,1.17,1.34,2.2l-.98,1.56c-.26.41-.3.92-.12,1.35l.71,1.66c.47,1.1-.54,2.29-1.7,2.02Z"/>
    <path class="cls-5" d="m83.59,243.25l-2.08-1.77c-.55-.47-1.3-.63-2.01-.45l-2.7.71c-1.79.47-3.31-1.27-2.57-2.94l1.11-2.53c.29-.66.24-1.42-.15-2.02l-1.47-2.29c-.97-1.52.27-3.51,2.1-3.36l2.77.21c.73.06,1.44-.24,1.91-.8l1.79-2.12c1.19-1.41,3.47-.89,3.87.86l.6,2.66c.16.7.66,1.27,1.33,1.53l2.58.98c1.71.65,1.88,2.95.29,3.9l-2.4,1.43c-.63.38-1.04,1.03-1.09,1.75l-.2,2.73c-.13,1.81-2.31,2.72-3.69,1.54Z"/>
  </g>
  <g id="Layer_11" data-name="Layer 11">
    <path class="cls-8" d="m198.45,46.28l-2.26-1.97c-.59-.52-1.42-.71-2.2-.52l-2.97.74c-1.97.49-3.61-1.44-2.78-3.26l1.25-2.75c.33-.72.28-1.55-.14-2.22l-1.58-2.53c-1.05-1.68.34-3.84,2.34-3.66l3.03.27c.8.07,1.59-.25,2.11-.85l1.99-2.31c1.32-1.53,3.82-.94,4.23,1l.62,2.92c.16.77.7,1.4,1.44,1.69l2.82,1.11c1.86.73,2.02,3.26.27,4.28l-2.65,1.54c-.7.4-1.15,1.11-1.22,1.9l-.25,2.99c-.17,1.98-2.57,2.95-4.06,1.65Z"/>
    <path class="cls-8" d="m128.87,83.87l-2.08-1.77c-.55-.47-1.3-.63-2.01-.45l-2.7.71c-1.79.47-3.31-1.27-2.57-2.94l1.11-2.53c.29-.66.24-1.42-.15-2.02l-1.47-2.29c-.97-1.52.27-3.51,2.1-3.36l2.77.21c.73.06,1.44-.24,1.91-.8l1.79-2.12c1.19-1.41,3.47-.89,3.87.86l.6,2.66c.16.7.66,1.27,1.33,1.53l2.58.98c1.71.65,1.88,2.95.29,3.9l-2.4,1.43c-.63.38-1.04,1.03-1.09,1.75l-.2,2.73c-.13,1.81-2.31,2.72-3.69,1.54Z"/>
    <path class="cls-8" d="m216,126.3l-5.21-1.7c-1.37-.45-2.89-.19-4.06.7l-4.47,3.36c-2.96,2.22-7.09.16-7-3.5l.14-5.52c.04-1.45-.64-2.81-1.82-3.63l-4.47-3.13c-2.96-2.07-2.17-6.7,1.34-7.83l5.29-1.71c1.39-.45,2.49-1.55,2.94-2.94l1.71-5.29c1.13-3.5,5.75-4.3,7.83-1.34l3.13,4.47c.82,1.17,2.18,1.85,3.63,1.82l5.52-.14c3.65-.09,5.72,4.04,3.5,7l-3.36,4.47c-.88,1.17-1.14,2.69-.69,4.06l1.71,5.21c1.13,3.45-2.22,6.79-5.66,5.66Z"/>
    <path class="cls-8" d="m277.63,68.72l-2.98-.38c-.78-.1-1.57.2-2.11.79l-2.06,2.27c-1.36,1.5-3.8.81-4.13-1.16l-.49-2.98c-.13-.78-.63-1.44-1.35-1.77l-2.73-1.22c-1.8-.81-1.86-3.38-.09-4.35l2.67-1.46c.7-.38,1.18-1.09,1.28-1.88l.37-3.02c.25-2,2.65-2.9,4.07-1.53l2.14,2.08c.56.55,1.36.77,2.14.6l2.96-.65c1.96-.43,3.49,1.58,2.6,3.4l-1.35,2.75c-.35.72-.34,1.57.05,2.26l1.45,2.62c.96,1.74-.49,3.88-2.46,3.63Z"/>
    <path class="cls-5" d="m197.8,43.49l-1.6-1.4c-.42-.37-1-.5-1.56-.37l-2.11.52c-1.39.35-2.56-1.02-1.97-2.31l.89-1.95c.23-.51.2-1.1-.1-1.57l-1.12-1.8c-.74-1.19.24-2.72,1.66-2.6l2.15.19c.57.05,1.12-.18,1.5-.61l1.41-1.63c.93-1.08,2.71-.66,3,.71l.44,2.07c.12.54.5.99,1.02,1.2l2,.79c1.32.52,1.43,2.31.19,3.03l-1.88,1.09c-.49.29-.82.79-.86,1.35l-.18,2.12c-.12,1.4-1.82,2.09-2.88,1.17Z"/>
    <path class="cls-5" d="m128.62,81.05l-1.48-1.26c-.39-.33-.92-.45-1.42-.32l-1.92.5c-1.27.33-2.35-.9-1.82-2.09l.79-1.79c.21-.47.17-1.01-.11-1.43l-1.04-1.63c-.69-1.08.19-2.49,1.49-2.39l1.96.15c.52.04,1.02-.17,1.36-.57l1.27-1.51c.84-1,2.46-.63,2.74.61l.43,1.88c.11.5.47.9.95,1.08l1.83.7c1.21.46,1.33,2.09.21,2.76l-1.7,1.01c-.45.27-.74.73-.77,1.24l-.14,1.94c-.09,1.28-1.64,1.93-2.62,1.1Z"/>
    <path class="cls-5" d="m213.71,122.72l-4.01-1.31c-1.05-.34-2.22-.14-3.12.53l-3.44,2.59c-2.27,1.71-5.46.12-5.39-2.69l.11-4.25c.03-1.12-.49-2.16-1.4-2.79l-3.44-2.41c-2.27-1.59-1.67-5.15,1.03-6.02l4.07-1.31c1.07-.35,1.92-1.19,2.26-2.26l1.31-4.07c.87-2.7,4.43-3.3,6.02-1.03l2.41,3.44c.63.9,1.68,1.43,2.79,1.4l4.25-.11c2.81-.07,4.4,3.11,2.69,5.38l-2.58,3.44c-.68.9-.88,2.07-.53,3.12l1.31,4c.87,2.65-1.7,5.23-4.36,4.36Z"/>
    <path class="cls-5" d="m275.17,66.37l-1.96-.25c-.52-.07-1.04.13-1.39.52l-1.36,1.5c-.9.99-2.51.54-2.72-.77l-.33-1.97c-.09-.52-.42-.95-.89-1.17l-1.8-.81c-1.19-.53-1.22-2.23-.06-2.87l1.76-.97c.46-.25.78-.72.84-1.24l.25-1.99c.16-1.32,1.75-1.91,2.69-1.01l1.41,1.37c.37.36.9.51,1.41.4l1.95-.43c1.29-.28,2.31,1.05,1.72,2.25l-.89,1.81c-.23.48-.22,1.03.03,1.49l.96,1.73c.64,1.15-.32,2.56-1.62,2.39Z"/>
    <circle class="cls-7" cx="163.17" cy="75.82" r="3.6"/>
    <circle class="cls-7" cx="168.46" cy="40.32" r="1.68"/>
    <circle class="cls-7" cx="252.51" cy="90.14" r="1.8"/>
    <circle class="cls-7" cx="246.92" cy="52.78" r="1.41"/>
    <circle class="cls-7" cx="292.34" cy="94.95" r="1.34"/>
    <circle class="cls-7" cx="100.09" cy="61.98" r="2.64"/>
    <circle class="cls-7" cx="143.43" cy="54.34" r="1.56"/>
    <circle class="cls-7" cx="217.07" cy="49.95" r="1.41"/>
    <circle class="cls-7" cx="40.48" cy="140.5" r="1.82"/>
    <circle class="cls-7" cx="71.93" cy="92.78" r=".83"/>
    <circle class="cls-7" cx="88.97" cy="87.4" r=".94"/>
    <circle class="cls-7" cx="106.7" cy="90.64" r=".5"/>
    <circle class="cls-7" cx="241.51" cy="30.74" r="1.38"/>
    <circle class="cls-7" cx="296.89" cy="73.5" r="1.28"/>
    <circle class="cls-7" cx="233.17" cy="70.22" r="2.07"/>
    <circle class="cls-7" cx="121.99" cy="42.62" r=".61"/>
    <circle class="cls-7" cx="121.51" cy="59.4" r="1.09"/>
    <circle class="cls-7" cx="133.8" cy="94.95" r="1.34"/>
    <circle class="cls-7" cx="190.96" cy="80.42" r="1"/>
    <circle class="cls-7" cx="317.31" cy="69.52" r=".85"/>
    <circle class="cls-7" cx="291.71" cy="49.24" r=".71"/>
    <circle class="cls-7" cx="273" cy="41.47" r="1.15"/>
    <circle class="cls-7" cx="343.36" cy="87.86" r=".93"/>
    <circle class="cls-7" cx="321.49" cy="85.15" r="1.79"/>
  </g>
  <g id="Layer_9" data-name="Layer 9">
    <path class="cls-10" d="m205,410C91.96,410,0,318.04,0,205S91.96,0,205,0s205,91.96,205,205-91.96,205-205,205Zm0-389C103.54,21,21,103.54,21,205s82.54,184,184,184,184-82.54,184-184S306.46,21,205,21Z"/>
  </g>
</svg>